{
  "title": "San Andreas (2015) 720p HDTS [Dual Audio] - [Hindi - English] x2",
  "uid": 12099934,
  "size": 1093542835,
  "categoryP": "video",
  "categoryS": "movies",
  "magnet": "?xt=urn:btih:ad9ff92814b12880757ea2733b0f82035ec4f504&amp;dn=San+Andreas+%282015%29+720p+HDTS+%5BDual+Audio%5D+-+%5BHindi+-+English%5D+x2&amp;tr=udp%3A%2F%2Ftracker.openbittorrent.com%3A80&amp;tr=udp%3A%2F%2Fopen.demonii.com%3A1337&amp;tr=udp%3A%2F%2Ftracker.coppersurfer.tk%3A6969&amp;tr=udp%3A%2F%2Fexodus.desync.com%3A6969",
  "seeders": 272,
  "leechers": 38,
  "uploader": "SS132203",
  "files": 2,
  "time": 1436228764,
  "description": "San Andreas (2015) 720p HDTS [Dual Audio] - [Hindi - English] x264...7St@r\n &lt;a href=&quot;\nhttp://imgsparrow.co/image/ei&quot; rel=&quot;nofollow&quot; target=&quot;_NEW&quot;&gt;\nhttp://imgsparrow.co/image/ei&lt;/a&gt;\n &lt;a href=&quot;\nhttp://imgsparrow.co/image/9b&quot; rel=&quot;nofollow&quot; target=&quot;_NEW&quot;&gt;\nhttp://imgsparrow.co/image/9b&lt;/a&gt;\n\nInfo : - \n\nThank 7St@r Not ME\n\nGeneral\nComplete name                            : San Andreas (2015)\nFormat                                   : Matroska\nFormat version                           : Version 4 / Version 2\nFile size                                : 1.02 GiB\nDuration                                 : 1h 45mn\nOverall bit rate                         : 1 382 Kbps\nMovie name                               : 7St@r by shanikhan786\n\n\nVideo\nID                                       : 1\nFormat                                   : AVC\nFormat/Info                              : Advanced Video Codec\nFormat profile                           : &lt;a class=&quot;__cf_email__&quot; href=&quot;/cdn-cgi/l/email-protection&quot; data-cfemail=&quot;82caebe5eac2ceb6acb2&quot;&gt;[email&amp;#160;protected]&lt;/a&gt;&lt;script data-cfhash='f9e31' type=&quot;text/javascript&quot;&gt;\n/* &lt;![CDATA[ */!function(){try{var t=&quot;currentScript&quot;in document?document.currentScript:function(){for(var t=document.getElementsByTagName(&quot;script&quot;),e=t.length;e--;)if(t[e].getAttribute(&quot;data-cfhash&quot;))return t[e]}();if(t&amp;&amp;t.previousSibling){var e,r,n,i,c=t.previousSibling,a=c.getAttribute(&quot;data-cfemail&quot;);if(a){for(e=&quot;&quot;,r=parseInt(a.substr(0,2),16),n=2;a.length-n;n+=2)i=parseInt(a.substr(n,2),16)^r,e+=String.fromCharCode(i);e=document.createTextNode(e),c.parentNode.replaceChild(e,c)}t.parentNode.removeChild(t);}}catch(u){}}()/* ]]&gt; */&lt;/script&gt;\nFormat settings, CABAC                   : Yes\nFormat settings, ReFrames                : 5 frames\nCodec ID                                 : V_MPEG4/ISO/AVC\nDuration                                 : 1h 45mn\nBit rate                                 : 1 034 Kbps\nWidth                                    : 1 280 pixels\nHeight                                   : 544 pixels\nDisplay aspect ratio                     : 2.35:1\nFrame rate mode                          : Constant\nFrame rate                               : 29.970 fps\nColor space                              : YUV\nChroma subsampling                       : 4:2:0\nBit depth                                : 8 bits\nScan type                                : Progressive\nBits/(Pixel*Frame)                       : 0.050\nStream size                              : 781 MiB (75%)\nTitle                                    : 7St@r by shanikhan786\nDefault                                  : Yes\nForced                                   : No\n\n\nAudio #1\nID                                       : 2\nFormat                                   : MPEG Audio\nFormat version                           : Version 1\nFormat profile                           : Layer 3\nCodec ID                                 : A_MPEG/L3\nCodec ID/Hint                            : MP3\nDuration                                 : 1h 45mn\nBit rate mode                            : Constant\nBit rate                                 : 192 Kbps\nChannel(s)                               : 2 channels\nSampling rate                            : 44.1 KHz\nCompression mode                         : Lossy\nDelay relative to video                  : -49ms\nStream size                              : 145 MiB (14%)\nTitle                                    : 7St@r by shanikhan786\nWriting library                          : LAME3.99.3\nLanguage                                 : English\nDefault                                  : Yes\nForced                                   : No\n\n\nAudio #2\nID                                       : 3\nFormat                                   : MPEG Audio\nFormat version                           : Version 1\nFormat profile                           : Layer 3\nMode                                     : Joint stereo\nMode extension                           : MS Stereo\nCodec ID                                 : A_MPEG/L3\nCodec ID/Hint                            : MP3\nDuration                                 : 1h 45mn\nBit rate mode                            : Constant\nBit rate                                 : 128 Kbps\nChannel(s)                               : 2 channels\nSampling rate                            : 44.1 KHz\nCompression mode                         : Lossy\nDelay relative to video                  : -67ms\nStream size                              : 96.6 MiB (9%)\nTitle                                    : 7St@r by shanikhan786\nWriting library                          : LAME3.98.2\nLanguage                                 : hai\nDefault                                  : No\nForced                                   : No\n\nScreens : - \n &lt;a href=&quot;\nhttp://imgsparrow.co/image/Od&quot; rel=&quot;nofollow&quot; target=&quot;_NEW&quot;&gt;\nhttp://imgsparrow.co/image/Od&lt;/a&gt; &lt;a href=&quot;\nhttp://imgsparrow.co/image/Oo&quot; rel=&quot;nofollow&quot; target=&quot;_NEW&quot;&gt;\nhttp://imgsparrow.co/image/Oo&lt;/a&gt; &lt;a href=&quot;\nhttp://imgsparrow.co/image/OM&quot; rel=&quot;nofollow&quot; target=&quot;_NEW&quot;&gt;\nhttp://imgsparrow.co/image/OM&lt;/a&gt; &lt;a href=&quot;\nhttp://imgsparrow.co/image/Om&quot; rel=&quot;nofollow&quot; target=&quot;_NEW&quot;&gt;\nhttp://imgsparrow.co/image/Om&lt;/a&gt; &lt;a href=&quot;\nhttp://imgsparrow.co/image/OF&quot; rel=&quot;nofollow&quot; target=&quot;_NEW&quot;&gt;\nhttp://imgsparrow.co/image/OF&lt;/a&gt; &lt;a href=&quot;\nhttp://imgsparrow.co/image/OO&quot; rel=&quot;nofollow&quot; target=&quot;_NEW&quot;&gt;\nhttp://imgsparrow.co/image/OO&lt;/a&gt; &lt;a href=&quot;\nhttp://imgsparrow.co/image/Op&quot; rel=&quot;nofollow&quot; target=&quot;_NEW&quot;&gt;\nhttp://imgsparrow.co/image/Op&lt;/a&gt; &lt;a href=&quot;\nhttp://imgsparrow.co/image/O0&quot; rel=&quot;nofollow&quot; target=&quot;_NEW&quot;&gt;\nhttp://imgsparrow.co/image/O0&lt;/a&gt;\n &lt;a href=&quot;\nhttp://imgsparrow.co/image/N2&quot; rel=&quot;nofollow&quot; target=&quot;_NEW&quot;&gt;\nhttp://imgsparrow.co/image/N2&lt;/a&gt;",
  "parsed": {
    "xt": "urn:btih:ad9ff92814b12880757ea2733b0f82035ec4f504",
    "dn": "San Andreas (2015) 720p HDTS [Dual Audio] - [Hindi - English] x2",
    "tr": [
      "udp://exodus.desync.com:6969",
      "udp://open.demonii.com:1337",
      "udp://tracker.coppersurfer.tk:6969",
      "udp://tracker.openbittorrent.com:80"
    ],
    "infoHash": "ad9ff92814b12880757ea2733b0f82035ec4f504",
    "infoHashBuffer": {
      "type": "Buffer",
      "data": [
        173,
        159,
        249,
        40,
        20,
        177,
        40,
        128,
        117,
        126,
        162,
        115,
        59,
        15,
        130,
        3,
        94,
        196,
        245,
        4
      ]
    },
    "name": "San Andreas (2015) 720p HDTS [Dual Audio] - [Hindi - English] x2",
    "announce": [
      "udp://exodus.desync.com:6969",
      "udp://open.demonii.com:1337",
      "udp://tracker.coppersurfer.tk:6969",
      "udp://tracker.openbittorrent.com:80"
    ],
    "urlList": []
  },
  "previous": 3,
  "peers": 9,
  "last_updated": "2016-12-27T10:06:17.764Z"
}